<svg viewBox="0 0 512 512.0005" xmlns="http://www.w3.org/2000/svg"><path d="m507.605469 118.003906-56.785157-56.785156c-.007812-.007812-.011718-.015625-.019531-.023438-.007812-.003906-.015625-.011718-.019531-.019531l-56.785156-56.78125c-5.855469-5.859375-15.355469-5.859375-21.210938 0-5.859375 5.855469-5.859375 15.355469 0 21.210938l46.195313 46.199219-35.589844 35.589843-17.792969-17.796875c-10.390625-10.386718-24.242187-16.109375-39.007812-16.109375s-28.621094 5.722657-39.007813 16.109375l-197.980469 197.980469c-21.507812 21.511719-21.507812 56.507813 0 78.019531l17.796876 17.792969-103.003907 103.003906c-5.859375 5.855469-5.859375 15.351563 0 21.210938 2.925781 2.929687 6.765625 4.394531 10.605469 4.394531 3.835938 0 7.679688-1.464844 10.605469-4.394531l103.003906-103 17.796875 17.792969c10.386719 10.390624 24.242188 16.109374 39.007812 16.109374 14.765626 0 28.621094-5.71875 39.007813-16.109374l22.707031-22.707032c.003906-.003906.011719-.007812.015625-.011718.003907-.007813.007813-.011719.011719-.015626l47.835938-47.835937c.007812-.007813.011718-.011719.015624-.015625.007813-.007812.011719-.011719.015626-.015625l47.824218-47.828125c.007813-.007812.019532-.015625.027344-.023438.007812-.007812.019531-.019531.027344-.027343l79.496094-79.496094c10.386718-10.390625 16.109374-24.242187 16.109374-39.007813 0-14.769531-5.722656-28.621093-16.109374-39.011718l-17.796876-17.796875 35.589844-35.589844 46.199219 46.199219c2.929687 2.925781 6.769531 4.394531 10.605469 4.394531 3.839844 0 7.679687-1.46875 10.605468-4.394531 5.863282-5.855469 5.863282-15.355469.003907-21.210938zm-322.191407 290.503906c-6.753906 0-13.074218-2.601562-17.796874-7.320312l-28.382813-28.386719c-.007813-.003906-.011719-.011719-.015625-.015625s-.011719-.007812-.015625-.015625l-28.386719-28.386719c-9.8125-9.8125-9.8125-25.78125 0-35.59375l158.96875-158.96875 92.394532 92.394532-29.910157 29.90625-23.472656-23.472656c-5.859375-5.859376-15.355469-5.859376-21.214844 0-5.855469 5.855468-5.855469 15.351562 0 21.210937l23.476563 23.476563-26.65625 26.65625-46.195313-46.199219c-5.859375-5.859375-15.355469-5.855469-21.214843 0-5.855469 5.859375-5.855469 15.355469.003906 21.214843l46.195312 46.195313-26.652344 26.652344-23.472656-23.476563c-5.859375-5.855468-15.355468-5.855468-21.214844 0-5.859374 5.859375-5.859374 15.355469 0 21.214844l23.476563 23.476562-12.117187 12.113282c-4.722657 4.726562-11.042969 7.324218-17.796876 7.324218zm215.773438-205.300781-17.796875 17.796875-92.390625-92.394531 17.792969-17.796875c4.722656-4.722656 11.042969-7.320312 17.792969-7.320312 6.753906 0 13.074218 2.597656 17.796874 7.320312l56.800782 56.804688c4.722656 4.722656 7.324218 11.042968 7.324218 17.796874 0 6.753907-2.601562 13.074219-7.320312 17.792969zm0 0"/><path d="m416.664062 388.324219c-45.460937 0-82.445312 36.984375-82.445312 82.445312 0 8.039063 2.324219 15.835938 6.71875 22.550781 7.648438 11.695313 20.550781 18.679688 34.511719 18.679688 10.136719 0 17.964843-2.320312 24.871093-4.363281 5.664063-1.679688 10.558594-3.128907 16.34375-3.128907 5.785157 0 10.679688 1.449219 16.347657 3.128907 6.902343 2.042969 14.730469 4.363281 24.867187 4.363281 13.957032 0 26.863282-6.980469 34.519532-18.679688 4.390624-6.71875 6.714843-14.515624 6.714843-22.550781 0-45.460937-36.988281-82.445312-82.449219-82.445312zm50.628907 88.566406c-2.09375 3.199219-5.609375 5.109375-9.414063 5.109375-5.785156 0-10.679687-1.449219-16.34375-3.128906-6.90625-2.046875-14.734375-4.367188-24.871094-4.367188-10.136718 0-17.964843 2.320313-24.867187 4.367188-5.667969 1.679687-10.5625 3.128906-16.347656 3.128906-3.800781 0-7.316407-1.90625-9.410157-5.105469-1.191406-1.820312-1.820312-3.9375-1.820312-6.125 0-28.917969 23.527344-52.445312 52.445312-52.445312 28.917969 0 52.445313 23.527343 52.445313 52.445312.003906 2.1875-.625 4.304688-1.816406 6.121094zm0 0"/><path d="m360.328125 370.148438c2.792969-2.800782 4.390625-6.65625 4.390625-10.609376 0-3.949218-1.597656-7.808593-4.390625-10.609374-2.796875-2.789063-6.660156-4.390626-10.609375-4.390626s-7.820312 1.601563-10.609375 4.390626c-2.789063 2.800781-4.390625 6.660156-4.390625 10.609374 0 3.953126 1.601562 7.8125 4.390625 10.609376 2.800781 2.792968 6.660156 4.390624 10.609375 4.390624s7.8125-1.597656 10.609375-4.390624zm0 0"/><path d="m404.070312 346.941406c2.789063-2.792968 4.390626-6.660156 4.390626-10.609375 0-3.941406-1.601563-7.8125-4.390626-10.613281-2.800781-2.789062-6.660156-4.386719-10.609374-4.386719-3.953126 0-7.820313 1.597657-10.609376 4.386719-2.789062 2.800781-4.390624 6.660156-4.390624 10.613281 0 3.949219 1.597656 7.816407 4.390624 10.609375 2.789063 2.789063 6.65625 4.390625 10.609376 4.390625 3.9375 0 7.808593-1.601562 10.609374-4.390625zm0 0"/><path d="m450.480469 346.941406c2.789062-2.792968 4.390625-6.660156 4.390625-10.609375 0-3.953125-1.601563-7.8125-4.390625-10.613281-2.789063-2.789062-6.660157-4.386719-10.609375-4.386719-3.953125 0-7.8125 1.597657-10.601563 4.386719-2.800781 2.800781-4.398437 6.660156-4.398437 10.613281 0 3.949219 1.597656 7.816407 4.398437 10.609375 2.789063 2.789063 6.660157 4.390625 10.601563 4.390625 3.949218 0 7.820312-1.601562 10.609375-4.390625zm0 0"/><path d="m494.21875 370.148438c2.789062-2.800782 4.390625-6.65625 4.390625-10.609376 0-3.949218-1.601563-7.808593-4.390625-10.609374-2.789062-2.789063-6.660156-4.390626-10.609375-4.390626s-7.808594 1.601563-10.609375 4.390626c-2.789062 2.800781-4.390625 6.660156-4.390625 10.609374 0 3.953126 1.601563 7.8125 4.390625 10.609376 2.800781 2.792968 6.660156 4.390624 10.609375 4.390624s7.808594-1.597656 10.609375-4.390624zm0 0"/></svg>