<?xml version="1.0"?>
<svg xmlns="http://www.w3.org/2000/svg" xmlns:xlink="http://www.w3.org/1999/xlink" version="1.1" id="Capa_1" x="0px" y="0px" viewBox="0 0 512 512" style="enable-background:new 0 0 512 512;" xml:space="preserve" width="512px" height="512px" class=""><g><g>
	<g>
		<path d="M403.836,452.588L377,398.931v-67.925c0-8.285-6.716-15-15-15h-30c-8.284,0-15,6.714-15,15v75    c0,4.662,1.086,9.26,3.171,13.431l29.993,59.987c7.474,14.949,25.499,20.795,40.254,13.418    C405.284,485.424,411.248,467.381,403.836,452.588z" data-original="#000000" class="active-path" data-old_color="#000000" fill="#EF3176"/>
	</g>
</g><g>
	<g>
		<path d="M90,391.006c-8.276,0-15,6.724-15,15s6.724,15,15,15s15-6.724,15-15S98.276,391.006,90,391.006z" data-original="#000000" class="active-path" data-old_color="#000000" fill="#EF3176"/>
	</g>
</g><g>
	<g>
		<path d="M90,316.006c-49.706,0-90,40.294-90,90s40.294,90,90,90s90-40.294,90-90S139.706,316.006,90,316.006z M90,451.006    c-24.814,0-45-20.186-45-45c0-24.814,20.186-45,45-45c24.814,0,45,20.186,45,45C135,430.82,114.814,451.006,90,451.006z" data-original="#000000" class="active-path" data-old_color="#000000" fill="#EF3176"/>
	</g>
</g><g>
	<g>
		<path d="M164.019,166.006c-41.045,0.439-74.15,34.57-74.019,76.084v43.916c36.059,0,68.108,16.207,90,41.517V166.006H164.019z" data-original="#000000" class="active-path" data-old_color="#000000" fill="#EF3176"/>
	</g>
</g><g>
	<g>
		<path d="M486.336,69.312L436.81,45.743c-16.553-21.943-43.374-33.047-71.045-28.916C329.407,22.144,302,55.528,302,94.463    c0,31.523,0,39.961,0,71.543c0,16.567,13.431,30,30,30c16.569,0,30-13.433,30-30c0-26.094,0-39.025,0-45c0-8.401,6.599-15,15-15    s15,6.599,15,15v45c0,32.999-27.001,60-60,60c-32.999,0-60-27.001-60-60h-62v210h77v-45c0-24.814,20.186-45,45-45h30    c24.814,0,45,20.186,45,45v25.536c29.824-20.704,47.935-56.763,45-94.607v-95.929h15c24.814,0,45-20.186,45-45v-11.06    C512,92.691,501.922,76.739,486.336,69.312z" data-original="#000000" class="active-path" data-old_color="#000000" fill="#EF3176"/>
	</g>
</g><g>
	<g>
		<path d="M98.643,132.227c-19.219-19.248-23.965-48.501-11.807-72.803c7.397-14.795,1.377-32.856-13.418-40.254    c-4.189-2.095-8.657-3.164-13.301-3.164c-11.499,0-21.826,6.372-26.953,16.582C9.434,80.035,18.706,137.134,56.221,174.649    l16.948,16.948c9.756-18.012,24.401-32.747,42.316-42.528L98.643,132.227z" data-original="#000000" class="active-path" data-old_color="#000000" fill="#EF3176"/>
	</g>
</g></g> </svg>
