<svg width="45" height="45" viewBox="0 0 45 45" fill="none" xmlns="http://www.w3.org/2000/svg">
<path d="M4.29177 38.3938L1.97968 43.8302C1.93922 43.9253 1.92518 44.0295 1.93902 44.1319C1.95286 44.2343 1.99407 44.3311 2.05832 44.412C2.12256 44.493 2.20745 44.5551 2.30403 44.5918C2.40062 44.6285 2.50532 44.6385 2.6071 44.6206L10.9965 43.1527C12.6507 43.7495 14.3958 44.055 16.1543 44.0556C23.9167 44.0556 30.3459 38.2387 31.3122 30.735C32.2283 30.5832 33.1288 30.3489 34.0027 30.035L42.3926 31.5027C42.4944 31.5205 42.5991 31.5105 42.6956 31.4738C42.7922 31.4371 42.8771 31.375 42.9413 31.2941C43.0056 31.2132 43.0468 31.1165 43.0606 31.0141C43.0745 30.9117 43.0605 30.8075 43.02 30.7124L40.708 25.276C42.9287 22.5621 44.1379 19.1611 44.129 15.6545C44.129 7.22703 37.2728 0.370667 28.8452 0.370667C25.1322 0.37085 21.5462 1.72257 18.7569 4.17337C15.9676 6.62418 14.1658 10.0065 13.688 13.6886C6.42939 14.8716 0.871146 21.1845 0.871146 28.7722C0.861946 32.2789 2.07105 35.6799 4.29177 38.3938ZM19.3277 5.20396C21.9289 2.83034 25.3241 1.51597 28.8455 1.51939C36.6395 1.51939 42.9808 7.86039 42.9808 15.6547C42.9897 19.0114 41.7917 22.2594 39.6055 24.8064C39.5363 24.8877 39.4911 24.9865 39.475 25.092C39.4589 25.1974 39.4725 25.3053 39.5142 25.4034L41.55 30.1899L34.0498 28.8779C33.9496 28.8604 33.8466 28.8697 33.7513 28.905C32.9934 29.1857 32.213 29.4017 31.4186 29.5505C31.4314 29.2929 31.438 29.0336 31.4383 28.7727C31.4408 26.5107 30.9381 24.2768 29.9669 22.2339L30.0387 22.2069L30.0512 22.2019C32.6102 21.1652 34.5989 19.6393 35.803 17.7894C36.8749 16.1423 37.284 14.3024 36.9544 12.6045C36.5035 10.3698 34.8785 8.92595 32.8143 8.92595C31.8056 8.92595 30.7256 9.28962 29.6697 9.98031C28.6007 9.25756 27.5356 8.89169 26.4983 8.89169C24.4216 8.89169 22.8026 10.3516 22.3743 12.6098C22.2393 13.3333 22.2301 14.0747 22.347 14.8014C20.398 13.9343 18.2882 13.4873 16.155 13.4895C15.7214 13.4895 15.2923 13.5086 14.8677 13.5442C15.3498 10.3335 16.9251 7.38743 19.3277 5.20367V5.20396ZM23.6782 15.4729C23.4037 14.6179 23.3432 13.7086 23.502 12.8247C23.8274 11.1069 24.9758 10.0397 26.498 10.0397C27.3791 10.0397 28.3554 10.4205 29.3212 11.1411C29.4194 11.2143 29.5384 11.2542 29.6609 11.255C29.7833 11.2558 29.9028 11.2174 30.0019 11.1454C30.9678 10.4445 31.9402 10.074 32.8141 10.074C34.3302 10.074 35.4853 11.1305 35.8277 12.8271C36.5475 16.5365 33.233 19.6715 29.6261 21.1346L29.4313 21.2083C28.0616 18.8159 26.0748 16.8351 23.6782 15.4727V15.4729ZM16.1549 14.637C23.9492 14.637 30.2903 20.978 30.2903 28.7724C30.2903 36.5667 23.9493 42.9077 16.1549 42.9077C14.48 42.9069 12.8187 42.6072 11.2491 42.0228C11.1537 41.9875 11.0508 41.9782 10.9506 41.9956L3.45034 43.3077L5.48585 38.5207C5.5276 38.4225 5.54118 38.3147 5.52507 38.2093C5.50897 38.1038 5.4638 38.0049 5.39465 37.9237C3.20848 35.3767 2.01064 32.1288 2.01958 28.7722C2.01958 20.9783 8.36058 14.637 16.1549 14.637Z" fill="#EF3176"/>
</svg>
